<svg width="418" height="644" viewBox="0 0 418 644" fill="none" xmlns="http://www.w3.org/2000/svg">
<path d="M131.768 156.76L142.839 191.802V158.47C142.839 70.9374 83.0984 0 0.136719 0V46.2233C59.3372 48.8585 111.315 91.948 131.768 156.76Z" fill="#8F1FEE"/>
<path d="M0 0V643.992C22.62 644.24 44.9514 638.622 65.0315 627.631C85.1116 616.64 102.326 600.614 115.161 580.96C133.354 552.857 142.965 519.555 142.702 485.523V158.47C142.837 70.9374 83.0967 0 0 0Z" fill="#007796"/>
<path d="M131.768 156.76L142.839 191.802V158.47C142.839 70.9374 83.0984 0 0.136719 0V46.2233C59.3372 48.8585 111.315 91.948 131.768 156.76Z" fill="url(#paint0_linear_4757_8541)"/>
<path d="M130.844 456.82L400.857 631.599L418.003 642.71V621.343C418.003 520.208 366.701 425.98 281.646 370.926L205.84 321.853L227.374 307.609C200.43 321.552 177.373 342.628 160.455 368.78C143.536 394.932 133.334 425.265 130.844 456.82Z" fill="url(#paint1_linear_4757_8541)"/>
<path d="M411.778 622.343L417.651 643.71V622.343C417.651 521.208 366.349 426.981 281.294 371.926L205.488 322.853C205.488 322.853 184.36 321.714 162.961 352.696C163.231 352.482 394.7 433.034 411.778 622.343Z" fill="url(#paint2_linear_4757_8541)"/>
<path d="M417.849 0.855469L91.6726 211.816C73.4888 222.986 58.4001 238.993 47.9128 258.24C37.4254 277.486 31.9062 299.298 31.9062 321.498C31.9062 343.699 37.4254 365.511 47.9128 384.757C58.4001 404.003 73.4888 420.011 91.6726 431.181L130.825 456.536C133.335 425.034 143.533 394.754 160.425 368.644C177.317 342.533 200.329 321.482 227.219 307.539L281.222 272.355C366.276 217.3 417.579 122.788 417.579 22.0085L417.849 0.855469Z" fill="url(#paint3_linear_4757_8541)"/>
<path d="M212.707 226.063C301.137 176.634 378.968 112.107 412.45 16.3129L417.783 1.07129L93.7662 210.892C75.5994 222.077 60.5278 238.089 50.0531 257.333C39.5784 276.578 34.0664 298.382 34.0664 320.575C34.0664 342.767 39.5784 364.571 50.0531 383.816C60.5278 403.06 75.5994 419.073 93.7662 430.257L125.763 450.983C68.5874 360.032 77.0253 301.701 212.707 226.063Z" fill="url(#paint4_linear_4757_8541)"/>
<defs>
<linearGradient id="paint0_linear_4757_8541" x1="0.136719" y1="95.9365" x2="142.839" y2="95.9365" gradientUnits="userSpaceOnUse">
<stop offset="0.03" stop-color="white" stop-opacity="0"/>
<stop offset="1" stop-color="#007796"/>
</linearGradient>
<linearGradient id="paint1_linear_4757_8541" x1="274.356" y1="642.71" x2="274.356" y2="307.823" gradientUnits="userSpaceOnUse">
<stop stop-color="#C5673E"/>
<stop offset="0.61" stop-color="#EC8F67"/>
<stop offset="1" stop-color="#F8956B"/>
</linearGradient>
<linearGradient id="paint2_linear_4757_8541" x1="376.744" y1="580.963" x2="108.763" y2="199.154" gradientUnits="userSpaceOnUse">
<stop stop-color="#B14517"/>
<stop offset="0.61" stop-color="#EC8F67"/>
<stop offset="1" stop-color="#EF936C"/>
</linearGradient>
<linearGradient id="paint3_linear_4757_8541" x1="224.924" y1="456.821" x2="224.924" y2="0.855469" gradientUnits="userSpaceOnUse">
<stop stop-color="#AC4189"/>
<stop offset="0.3" stop-color="#AC4189"/>
<stop offset="0.8" stop-color="#AC4189"/>
</linearGradient>
<linearGradient id="paint4_linear_4757_8541" x1="225.938" y1="455.541" x2="225.938" y2="-0.424379" gradientUnits="userSpaceOnUse">
<stop offset="0.21" stop-color="white" stop-opacity="0"/>
<stop offset="1" stop-color="#AC4189"/>
</linearGradient>
</defs>
</svg>
