<svg width="987" height="644" viewBox="0 0 987 644" fill="none" xmlns="http://www.w3.org/2000/svg">
<path d="M447 203C441.477 203 437 207.477 437 213V456C437 461.523 441.477 466 447 466H561C566.523 466 571 461.523 571 456V423.4C571 417.877 566.523 413.4 561 413.4H491.667C486.144 413.4 481.667 408.923 481.667 403.4V370.8C481.667 365.277 486.144 360.8 491.667 360.8H561C566.523 360.8 571 356.323 571 350.8V318.2C571 312.677 566.523 308.2 561 308.2H491.667C486.144 308.2 481.667 303.723 481.667 298.2V265.6C481.667 260.077 486.144 255.6 491.667 255.6H561C566.523 255.6 571 251.123 571 245.6V213C571 207.477 566.523 203 561 203H447Z" fill="white"/>
<path d="M917.621 411.559C916.316 407.385 912.45 404.543 908.077 404.543H847.629C843.36 404.543 839.561 407.253 838.173 411.291L821.679 459.252C820.29 463.289 816.492 466 812.222 466H780.769C773.974 466 769.157 459.368 771.259 452.906L850.309 209.906C851.649 205.788 855.487 203 859.818 203H894.182C898.513 203 902.351 205.788 903.691 209.907L982.741 452.907C984.843 459.368 980.026 466 973.231 466H941.993C937.619 466 933.753 463.158 932.448 458.984L917.621 411.559ZM855.836 351.19C854.177 357.528 858.959 363.722 865.51 363.722H888.49C895.041 363.722 899.823 357.528 898.164 351.19L886.674 307.292C884.068 297.335 869.932 297.335 867.326 307.292L855.836 351.19Z" fill="white"/>
<path d="M616 202C610.477 202 606 206.477 606 212V244.6C606 250.123 610.477 254.6 616 254.6H649.667C655.19 254.6 659.667 259.077 659.667 264.6V455C659.667 460.523 664.144 465 669.667 465H703.333C708.856 465 713.333 460.523 713.333 455V264.6C713.333 259.077 717.81 254.6 723.333 254.6H757C762.523 254.6 767 250.123 767 244.6V212C767 206.477 762.523 202 757 202H616Z" fill="white"/>
<path d="M131.77 156.76L142.841 191.802V158.47C142.841 70.9374 83.1004 0 0.138672 0V46.2233C59.3392 48.8585 111.317 91.948 131.77 156.76Z" fill="#8F1FEE"/>
<path d="M0 0V643.992C22.62 644.24 44.9514 638.622 65.0315 627.631C85.1116 616.64 102.326 600.614 115.161 580.96C133.354 552.857 142.965 519.555 142.702 485.523V158.47C142.837 70.9374 83.0967 0 0 0Z" fill="#AC4189"/>
<path d="M131.77 156.76L142.841 191.802V158.47C142.841 70.9374 83.1004 0 0.138672 0V46.2233C59.3392 48.8585 111.317 91.948 131.77 156.76Z" fill="url(#paint0_linear_272_8913)"/>
<path d="M130.844 456.82L400.857 631.6L418.003 642.71V621.344C418.003 520.208 366.701 425.981 281.646 370.926L205.84 321.854L227.374 307.609C200.43 321.552 177.373 342.629 160.455 368.78C143.536 394.932 133.334 425.266 130.844 456.82Z" fill="url(#paint1_linear_272_8913)"/>
<path d="M411.778 622.343L417.651 643.71V622.343C417.651 521.207 366.349 426.98 281.294 371.925L205.488 322.853C205.488 322.853 184.36 321.713 162.961 352.695C163.231 352.482 394.7 433.034 411.778 622.343Z" fill="url(#paint2_linear_272_8913)"/>
<path d="M417.849 0.855469L91.6726 211.816C73.4888 222.986 58.4001 238.993 47.9128 258.24C37.4254 277.486 31.9062 299.298 31.9062 321.498C31.9062 343.699 37.4254 365.511 47.9128 384.757C58.4001 404.003 73.4888 420.011 91.6726 431.181L130.825 456.536C133.335 425.034 143.533 394.754 160.425 368.644C177.317 342.533 200.329 321.482 227.219 307.539L281.222 272.355C366.276 217.3 417.579 122.788 417.579 22.0085L417.849 0.855469Z" fill="url(#paint3_linear_272_8913)"/>
<path d="M212.707 226.062C301.137 176.633 378.968 112.106 412.45 16.3119L417.783 1.07031L93.7662 210.891C75.5994 222.076 60.5278 238.088 50.0531 257.332C39.5784 276.577 34.0664 298.381 34.0664 320.574C34.0664 342.766 39.5784 364.57 50.0531 383.815C60.5278 403.059 75.5994 419.072 93.7662 430.256L125.763 450.982C68.5874 360.031 77.0253 301.7 212.707 226.062Z" fill="url(#paint4_linear_272_8913)"/>
<defs>
<linearGradient id="paint0_linear_272_8913" x1="0.138672" y1="95.9365" x2="142.841" y2="95.9365" gradientUnits="userSpaceOnUse">
<stop offset="0.03" stop-color="white" stop-opacity="0"/>
<stop offset="1" stop-color="#AC4189"/>
</linearGradient>
<linearGradient id="paint1_linear_272_8913" x1="274.356" y1="642.71" x2="274.356" y2="307.823" gradientUnits="userSpaceOnUse">
<stop stop-color="#179BBD"/>
<stop offset="0.61" stop-color="#2F91AB"/>
<stop offset="1" stop-color="#158CAB"/>
</linearGradient>
<linearGradient id="paint2_linear_272_8913" x1="376.744" y1="580.963" x2="108.763" y2="199.154" gradientUnits="userSpaceOnUse">
<stop stop-color="#007796"/>
<stop offset="0.61" stop-color="#007796"/>
<stop offset="1" stop-color="#007796"/>
</linearGradient>
<linearGradient id="paint3_linear_272_8913" x1="224.924" y1="456.821" x2="224.924" y2="0.855469" gradientUnits="userSpaceOnUse">
<stop stop-color="#EC8F67"/>
<stop offset="0.3" stop-color="#EC8F67"/>
<stop offset="0.8" stop-color="#EC8F67"/>
</linearGradient>
<linearGradient id="paint4_linear_272_8913" x1="225.938" y1="455.54" x2="225.938" y2="-0.425355" gradientUnits="userSpaceOnUse">
<stop offset="0.21" stop-color="white" stop-opacity="0"/>
<stop offset="1" stop-color="#EC8F67"/>
</linearGradient>
</defs>
</svg>
