<svg width="1168" height="644" viewBox="0 0 1168 644" fill="none" xmlns="http://www.w3.org/2000/svg">
<path d="M657 251C651.477 251 647 255.477 647 261V504C647 509.523 651.477 514 657 514H771C776.523 514 781 509.523 781 504V471.4C781 465.877 776.523 461.4 771 461.4H701.667C696.144 461.4 691.667 456.923 691.667 451.4V418.8C691.667 413.277 696.144 408.8 701.667 408.8H771C776.523 408.8 781 404.323 781 398.8V366.2C781 360.677 776.523 356.2 771 356.2H701.667C696.144 356.2 691.667 351.723 691.667 346.2V313.6C691.667 308.077 696.144 303.6 701.667 303.6H771C776.523 303.6 781 299.123 781 293.6V261C781 255.477 776.523 251 771 251H657Z" fill="#007796"/>
<path d="M1098.62 459.559C1097.32 455.385 1093.45 452.543 1089.08 452.543H1028.63C1024.36 452.543 1020.56 455.253 1019.17 459.291L1002.68 507.252C1001.29 511.289 997.492 514 993.222 514H961.769C954.974 514 950.157 507.368 952.259 500.906L1031.31 257.906C1032.65 253.788 1036.49 251 1040.82 251H1075.18C1079.51 251 1083.35 253.788 1084.69 257.907L1163.74 500.907C1165.84 507.368 1161.03 514 1154.23 514H1122.99C1118.62 514 1114.75 511.158 1113.45 506.984L1098.62 459.559ZM1036.84 399.19C1035.18 405.528 1039.96 411.722 1046.51 411.722H1069.49C1076.04 411.722 1080.82 405.528 1079.16 399.19L1067.67 355.292C1065.07 345.335 1050.93 345.335 1048.33 355.292L1036.84 399.19Z" fill="#007796"/>
<path d="M827 251C821.477 251 817 255.477 817 261V293.6C817 299.123 821.477 303.6 827 303.6H860.667C866.19 303.6 870.667 308.077 870.667 313.6V504C870.667 509.523 875.144 514 880.667 514H914.333C919.856 514 924.333 509.523 924.333 504V313.6C924.333 308.077 928.81 303.6 934.333 303.6H968C973.523 303.6 978 299.123 978 293.6V261C978 255.477 973.523 251 968 251H827Z" fill="#007796"/>
<path d="M624.271 505.445L554.393 376.365C552.744 373.318 552.789 369.635 554.513 366.629L615.859 259.679C616.83 257.958 616.938 255.764 616.075 253.943C615.666 253.052 615.054 252.306 614.305 251.788C613.556 251.269 612.699 250.997 611.826 251H559.116C557.52 251 555.989 251.948 555.104 253.494L515.569 322.421C510.471 331.309 496.894 327.691 496.894 317.445V256.612C496.894 253.519 494.716 251.025 492.063 251.025H444.831C442.157 251.025 440 253.519 440 256.612V508.413C440 511.506 442.157 514 444.831 514H492.063C494.716 514 496.894 511.506 496.894 508.413V428.057C496.894 417.68 510.749 414.171 515.689 423.297L563.365 511.381C564.249 513.002 565.802 514 567.462 514H620.173C621.92 514 623.559 512.903 624.4 511.107C625.241 509.336 625.198 507.166 624.271 505.445Z" fill="#007796"/>
<path d="M131.768 156.76L142.839 191.802V158.47C142.839 70.9374 83.0984 0 0.136719 0V46.2233C59.3372 48.8585 111.315 91.948 131.768 156.76Z" fill="#8F1FEE"/>
<path d="M0 0V643.992C22.62 644.24 44.9514 638.622 65.0315 627.631C85.1116 616.64 102.326 600.614 115.161 580.96C133.354 552.857 142.965 519.555 142.702 485.523V158.47C142.837 70.9374 83.0967 0 0 0Z" fill="#007796"/>
<path d="M131.768 156.76L142.839 191.802V158.47C142.839 70.9374 83.0984 0 0.136719 0V46.2233C59.3372 48.8585 111.315 91.948 131.768 156.76Z" fill="url(#paint0_linear_4758_8542)"/>
<path d="M130.844 456.82L400.857 631.599L418.003 642.71V621.343C418.003 520.208 366.701 425.98 281.646 370.926L205.84 321.853L227.374 307.609C200.43 321.552 177.373 342.628 160.455 368.78C143.536 394.932 133.334 425.265 130.844 456.82Z" fill="url(#paint1_linear_4758_8542)"/>
<path d="M411.778 622.343L417.651 643.71V622.343C417.651 521.208 366.349 426.981 281.294 371.926L205.488 322.853C205.488 322.853 184.36 321.714 162.961 352.696C163.231 352.482 394.7 433.034 411.778 622.343Z" fill="url(#paint2_linear_4758_8542)"/>
<path d="M417.849 0.855469L91.6726 211.816C73.4888 222.986 58.4001 238.993 47.9128 258.24C37.4254 277.486 31.9062 299.298 31.9062 321.498C31.9062 343.699 37.4254 365.511 47.9128 384.757C58.4001 404.003 73.4888 420.011 91.6726 431.181L130.825 456.536C133.335 425.034 143.533 394.754 160.425 368.644C177.317 342.533 200.329 321.482 227.219 307.539L281.222 272.355C366.276 217.3 417.579 122.788 417.579 22.0085L417.849 0.855469Z" fill="url(#paint3_linear_4758_8542)"/>
<path d="M212.707 226.063C301.137 176.634 378.968 112.107 412.45 16.3129L417.783 1.07129L93.7662 210.892C75.5994 222.077 60.5278 238.089 50.0531 257.333C39.5784 276.578 34.0664 298.382 34.0664 320.575C34.0664 342.767 39.5784 364.571 50.0531 383.816C60.5278 403.06 75.5994 419.073 93.7662 430.257L125.763 450.983C68.5874 360.032 77.0253 301.701 212.707 226.063Z" fill="url(#paint4_linear_4758_8542)"/>
<defs>
<linearGradient id="paint0_linear_4758_8542" x1="0.136719" y1="95.9365" x2="142.839" y2="95.9365" gradientUnits="userSpaceOnUse">
<stop offset="0.03" stop-color="white" stop-opacity="0"/>
<stop offset="1" stop-color="#007796"/>
</linearGradient>
<linearGradient id="paint1_linear_4758_8542" x1="274.356" y1="642.71" x2="274.356" y2="307.823" gradientUnits="userSpaceOnUse">
<stop stop-color="#C5673E"/>
<stop offset="0.61" stop-color="#EC8F67"/>
<stop offset="1" stop-color="#F8956B"/>
</linearGradient>
<linearGradient id="paint2_linear_4758_8542" x1="376.744" y1="580.963" x2="108.763" y2="199.154" gradientUnits="userSpaceOnUse">
<stop stop-color="#B14517"/>
<stop offset="0.61" stop-color="#EC8F67"/>
<stop offset="1" stop-color="#EF936C"/>
</linearGradient>
<linearGradient id="paint3_linear_4758_8542" x1="224.924" y1="456.821" x2="224.924" y2="0.855469" gradientUnits="userSpaceOnUse">
<stop stop-color="#AC4189"/>
<stop offset="0.3" stop-color="#AC4189"/>
<stop offset="0.8" stop-color="#AC4189"/>
</linearGradient>
<linearGradient id="paint4_linear_4758_8542" x1="225.938" y1="455.541" x2="225.938" y2="-0.424379" gradientUnits="userSpaceOnUse">
<stop offset="0.21" stop-color="white" stop-opacity="0"/>
<stop offset="1" stop-color="#AC4189"/>
</linearGradient>
</defs>
</svg>
